<?xml version="1.0" encoding="utf-8"?>
<!-- Generator: Adobe Illustrator 16.0.4, SVG Export Plug-In . SVG Version: 6.00 Build 0)  -->
<!DOCTYPE svg PUBLIC "-//W3C//DTD SVG 1.1//EN" "http://www.w3.org/Graphics/SVG/1.1/DTD/svg11.dtd">
<svg version="1.1" id="Layer_1" xmlns="http://www.w3.org/2000/svg" xmlns:xlink="http://www.w3.org/1999/xlink" x="0px" y="0px"
	 width="260px" height="320px" viewBox="60 22 260 320" enable-background="new 60 22 260 320" xml:space="preserve">
<path fill="#070708" d="M61.82,319.96C104.35,221.2,147.29,122.62,190,23.94c36.311,83.75,72.6,167.5,108.9,251.26
	c6.39,14.93,13.039,29.76,19.279,44.76c-35.49-23.069-71-46.11-106.51-69.14c-7.22,29.8-14.4,59.6-21.67,89.38
	c-7.27-29.78-14.45-59.58-21.67-89.37C132.82,273.85,97.31,296.891,61.82,319.96z"/>
<path fill="#FFFFFF" d="M189.67,101.04c0.18,0.02,0.52,0.07,0.7,0.09c20.101,46.19,40.06,92.45,60.13,138.67
	c-18.689-11.989-37.2-24.26-55.93-36.18c-1.43,17.33-2.86,34.69-4.59,51.989c-1.65-17.319-3.13-34.67-4.56-52.01
	c-18.7,11.971-37.24,24.2-55.92,36.2C149.58,193.561,169.55,147.26,189.67,101.04z"/>
</svg>
